<?xml version="1.0" encoding="UTF-8"?>
<svg width="28px" height="24px" viewBox="0 0 28 24" version="1.1" xmlns="http://www.w3.org/2000/svg" xmlns:xlink="http://www.w3.org/1999/xlink">
    <title>Badge/Packshot/Unentitled/Web/€/3px</title>
    <g id="Badge/Packshot/Unentitled/Web/€/3px" stroke="none" stroke-width="1" fill="none" fill-rule="evenodd">
        <path d="M14,20 C19.5228475,20 24,15.5228475 24,10 C24,4.4771525 19.5228475,-1.01453063e-15 14,0 L14.178,0.002 L23.5322287,0 C26.2806939,2.52949625 28,6.13928559 28,10.14644 C28,17.7975499 21.7319865,24 14,24 L0,24 L0,20 Z" id="Combined-Shape" fill="#0F171E"></path>
        <path d="M3,0 L14,0 C19.5228475,-1.01453063e-15 24,4.4771525 24,10 C24,15.5228475 19.5228475,20 14,20 L0,20 L0,20 L0,3 C-2.02906125e-16,1.34314575 1.34314575,3.04359188e-16 3,0 Z" id="Yellow" fill="#FFA724"></path>
        <path d="M12.904,15.169 C13.736,15.169 14.477,15.0346667 15.127,14.766 L15.127,14.766 L15.127,13.336 C14.4943333,13.518 13.827,13.609 13.125,13.609 C11.955,13.609 11.227,13.1193333 10.941,12.14 L10.941,12.14 L13.515,12.14 L13.827,11.022 L10.785,11.022 L10.785,10.047 L14.061,10.047 L14.373,8.929 L10.941,8.929 C11.1056667,8.41766667 11.3765,8.0385 11.7535,7.7915 C12.1305,7.5445 12.6266667,7.421 13.242,7.421 C13.9006667,7.421 14.5116667,7.499 15.075,7.655 L15.075,7.655 L15.075,6.225 C14.4423333,5.98233333 13.7533333,5.861 13.008,5.861 C11.968,5.861 11.1121667,6.12316667 10.4405,6.6475 C9.76883333,7.17183333 9.316,7.93233333 9.082,8.929 L9.082,8.929 L8.003,8.929 L8.003,10.047 L8.926,10.047 C8.91733333,10.1336667 8.913,10.2203333 8.913,10.307 L8.913,10.307 L8.913,10.801 C8.913,10.879 8.91733333,10.9526667 8.926,11.022 L8.926,11.022 L8.003,11.022 L8.003,12.14 L9.069,12.14 C9.28566667,13.1366667 9.71683333,13.8906667 10.3625,14.402 C11.0081667,14.9133333 11.8553333,15.169 12.904,15.169 Z" id="€" fill="#0F171E" fill-rule="nonzero"></path>
    </g>
</svg>